#define folder_24_width 24
#define folder_24_height 24
static unsigned char folder_24_bits[] = {
   0x00, 0x00, 0x00, 0x00, 0x00, 0x00, 0x00, 0x00, 0x00, 0xfc, 0x03, 0x00,
   0x04, 0x06, 0x00, 0x04, 0x08, 0x00, 0x04, 0xf8, 0x07, 0x04, 0x00, 0x04,
   0x04, 0x00, 0x04, 0x04, 0x00, 0x00, 0x04, 0xff, 0x7f, 0x04, 0xff, 0x7f,
   0x04, 0xff, 0x7f, 0x84, 0xff, 0x3f, 0x84, 0xff, 0x3f, 0xc4, 0xff, 0x1f,
   0xc4, 0xff, 0x1f, 0xc4, 0xff, 0x1f, 0xe4, 0xff, 0x0f, 0xf4, 0xff, 0x0f,
   0xf8, 0xff, 0x07, 0x00, 0x00, 0x00, 0x00, 0x00, 0x00, 0x00, 0x00, 0x00 };
