#define gears_24_width 24
#define gears_24_height 24
static unsigned char gears_24_bits[] = {
   0x00, 0x00, 0x0c, 0x00, 0x80, 0x3f, 0x00, 0x80, 0x7f, 0x00, 0x80, 0x73,
   0x00, 0xc0, 0xe1, 0x00, 0xc0, 0xe1, 0xe0, 0x98, 0x71, 0xe0, 0xbf, 0x7f,
   0xf0, 0xbf, 0x7f, 0xf0, 0x7f, 0x0c, 0xfe, 0xff, 0x01, 0xff, 0xf8, 0x03,
   0x3f, 0xf0, 0x03, 0x3e, 0xe0, 0x01, 0x1c, 0xe0, 0x01, 0x1c, 0xe0, 0x01,
   0x3e, 0xf0, 0x03, 0x7f, 0xf0, 0x03, 0xff, 0xfc, 0x03, 0xf8, 0x7f, 0x00,
   0xf0, 0x3f, 0x00, 0xe0, 0x3f, 0x00, 0xf0, 0x3c, 0x00, 0x60, 0x18, 0x00 };
