#define time_24_width 24
#define time_24_height 24
static unsigned char time_24_bits[] = {
   0x00, 0x00, 0x00, 0x00, 0x00, 0x00, 0x00, 0x18, 0x00, 0x00, 0xff, 0x00,
   0xc0, 0x00, 0x03, 0x60, 0x00, 0x06, 0x30, 0x00, 0x0c, 0x10, 0x08, 0x08,
   0x08, 0x08, 0x10, 0x08, 0x08, 0x10, 0x08, 0x08, 0x10, 0x0c, 0x18, 0x30,
   0x0c, 0x10, 0x30, 0x08, 0x20, 0x10, 0x08, 0x40, 0x10, 0x08, 0x80, 0x10,
   0x10, 0x00, 0x08, 0x30, 0x00, 0x0c, 0x60, 0x00, 0x06, 0xc0, 0x00, 0x03,
   0x00, 0xff, 0x00, 0x00, 0x18, 0x00, 0x00, 0x00, 0x00, 0x00, 0x00, 0x00 };
