#define palette_24_width 24
#define palette_24_height 24
static unsigned char palette_24_bits[] = {
   0x00, 0x1f, 0x00, 0xe0, 0xff, 0x00, 0xf0, 0xff, 0x03, 0x7c, 0xbe, 0x07,
   0x3c, 0x1c, 0x0f, 0x3e, 0x0c, 0x1f, 0x3e, 0x1c, 0x3f, 0xff, 0xbf, 0x3f,
   0xff, 0xff, 0x7f, 0xc7, 0xff, 0x7f, 0xc3, 0xff, 0xff, 0xc3, 0xff, 0xff,
   0xe7, 0xff, 0xff, 0xff, 0xff, 0xf7, 0x3e, 0xfe, 0xe7, 0x1e, 0xfe, 0x47,
   0x1c, 0xfe, 0x07, 0x3c, 0xfe, 0x0f, 0xf8, 0xff, 0x0f, 0xf0, 0xff, 0x0f,
   0xc0, 0xff, 0x0f, 0x80, 0xff, 0x0f, 0x00, 0xfe, 0x03, 0x00, 0x00, 0x00 };
