#define plus_24_width 24
#define plus_24_height 24
static unsigned char plus_24_bits[] = {
   0x00, 0x7e, 0x00, 0xc0, 0xff, 0x03, 0xe0, 0x00, 0x07, 0x30, 0x00, 0x0c,
   0x18, 0x00, 0x18, 0x0c, 0x18, 0x30, 0x06, 0x18, 0x60, 0x06, 0x18, 0x60,
   0x02, 0x18, 0x40, 0x03, 0x18, 0xc0, 0x03, 0x18, 0xc0, 0xe3, 0xff, 0xc7,
   0xe3, 0xff, 0xc7, 0x03, 0x18, 0xc0, 0x03, 0x18, 0xc0, 0x02, 0x18, 0x40,
   0x06, 0x18, 0x60, 0x06, 0x18, 0x60, 0x0c, 0x18, 0x30, 0x18, 0x00, 0x18,
   0x30, 0x00, 0x0c, 0xe0, 0x00, 0x07, 0xc0, 0xff, 0x03, 0x00, 0x7e, 0x00 };
